<svg width="20" height="20" viewBox="0 0 20 20" fill="none" xmlns="http://www.w3.org/2000/svg">
<path fill-rule="evenodd" clip-rule="evenodd" d="M10 3.125C7.58375 3.125 5.625 5.08375 5.625 7.5C5.625 9.91625 7.58375 11.875 10 11.875C12.4162 11.875 14.375 9.91625 14.375 7.5C14.375 5.08375 12.4162 3.125 10 3.125ZM4.375 7.5C4.375 4.3934 6.8934 1.875 10 1.875C13.1066 1.875 15.625 4.3934 15.625 7.5C15.625 10.6066 13.1066 13.125 10 13.125C6.8934 13.125 4.375 10.6066 4.375 7.5Z" fill="white"/>
<path fill-rule="evenodd" clip-rule="evenodd" d="M9.99998 13.1244C8.57362 13.1244 7.17239 13.4999 5.93716 14.2131C4.70193 14.9264 3.67622 15.9522 2.96315 17.1875C2.79059 17.4865 2.40836 17.5889 2.10941 17.4164C1.81046 17.2438 1.708 16.8616 1.88056 16.5626C2.70333 15.1373 3.88684 13.9536 5.31211 13.1306C6.73738 12.3077 8.35418 11.8744 9.99998 11.8744C11.6458 11.8744 13.2626 12.3077 14.6879 13.1306C16.1131 13.9536 17.2966 15.1373 18.1194 16.5626C18.292 16.8616 18.1895 17.2438 17.8906 17.4164C17.5916 17.5889 17.2094 17.4865 17.0368 17.1875C16.3237 15.9522 15.298 14.9264 14.0628 14.2131C12.8276 13.4999 11.4263 13.1244 9.99998 13.1244Z" fill="white"/>
</svg>
