<svg width="21" height="20" viewBox="0 0 21 20" fill="none" xmlns="http://www.w3.org/2000/svg">
<g id="ArrowRight">
<path id="Vector (Stroke)" fillRule="evenodd" clipRule="evenodd" d="M3 10C3 9.65482 3.27982 9.375 3.625 9.375H17.375C17.7202 9.375 18 9.65482 18 10C18 10.3452 17.7202 10.625 17.375 10.625H3.625C3.27982 10.625 3 10.3452 3 10Z" fill="#A259FF"/>
<path id="Vector (Stroke)_2" fillRule="evenodd" clipRule="evenodd" d="M11.3081 3.93306C11.5521 3.68898 11.9479 3.68898 12.1919 3.93306L17.8169 9.55806C18.061 9.80214 18.061 10.1979 17.8169 10.4419L12.1919 16.0669C11.9479 16.311 11.5521 16.311 11.3081 16.0669C11.064 15.8229 11.064 15.4271 11.3081 15.1831L16.4911 10L11.3081 4.81694C11.064 4.57286 11.064 4.17714 11.3081 3.93306Z" fill="#A259FF"/>
</g>
</svg>
