<svg width="35" height="15" viewBox="0 0 35 15" fill="none" xmlns="http://www.w3.org/2000/svg">
<path d="M21.6963 3.65063C21.6963 3.72576 21.6963 3.80088 21.6212 3.876C21.0202 6.88085 19.0671 7.85742 16.513 7.85742H15.2359C14.9354 7.85742 14.6349 8.08279 14.6349 8.38328L13.9588 12.5901L13.8086 13.792C13.8086 14.0174 13.9588 14.1676 14.1091 14.1676H16.4378C16.7383 14.1676 16.9637 13.9422 16.9637 13.7169V13.5666L17.4144 10.8623V10.712C17.4895 10.4115 17.7149 10.2613 17.9403 10.2613H18.3159C20.5695 10.2613 22.2973 9.35985 22.748 6.73061C22.9734 5.60379 22.8231 4.70233 22.2973 4.10136C22.1471 3.95112 21.9217 3.80088 21.6963 3.65063Z" fill="#2199D6"/>
<path d="M21.0952 3.42531C21.0201 3.42531 20.945 3.35019 20.7947 3.35019C20.7196 3.35019 20.5693 3.27507 20.4942 3.27507C20.1186 3.19995 19.743 3.19995 19.3674 3.19995H15.9118C15.8367 3.19995 15.7616 3.19995 15.6865 3.27507C15.5362 3.35019 15.386 3.50044 15.386 3.65068L14.6348 8.3082V8.45844C14.7099 8.15796 14.9352 7.93259 15.2357 7.93259H16.5128C19.0669 7.93259 21.0201 6.88089 21.621 3.95116C21.621 3.87604 21.621 3.80092 21.6962 3.7258C21.5459 3.65068 21.3957 3.57556 21.2454 3.50044C21.1703 3.42532 21.0952 3.42531 21.0952 3.42531Z" fill="#252C5E"/>
<path d="M15.3862 3.65069C15.3862 3.50045 15.5364 3.35021 15.6867 3.27509C15.7618 3.27509 15.8369 3.19997 15.912 3.19997H19.3676C19.7432 3.19997 20.1939 3.19996 20.4944 3.27509C20.5695 3.27509 20.7198 3.27509 20.7949 3.35021C20.87 3.35021 20.9451 3.42533 21.0954 3.42533C21.1705 3.42533 21.1705 3.42533 21.2456 3.50045C21.3959 3.57557 21.5461 3.65069 21.6964 3.72582C21.8466 2.599 21.6964 1.84778 21.0954 1.17169C20.4193 0.420478 19.2174 0.119995 17.7149 0.119995H13.2828C12.9823 0.119995 12.6818 0.345357 12.6818 0.645842L10.8789 12.2145C10.8789 12.4399 11.0291 12.6652 11.2545 12.6652H13.9589L14.635 8.30821L15.3862 3.65069Z" fill="#263577"/>
</svg>
